<svg width="916" height="415" fill="none" xmlns="http://www.w3.org/2000/svg"><path fill-rule="evenodd" clip-rule="evenodd" d="M67 351.5c-.068 36.004 23.362 54.185 53.255 40.276a51.114 51.114 0 001.927-.942l458.873-220.503c1.299-.495 2.546-1.359 3.867-1.97 30.313-14.106 55.498-55.272 56.067-92.28.57-37.006-23.631-55.313-53.948-40.944-4.667 2.211-9.198 5.066-13.532 8.438l-.006.38c-.479 31.149-13.982 67.16-42.091 84.653h.01L67 351.5z" fill="#F6F6F6"/><path fill-rule="evenodd" clip-rule="evenodd" d="M561.09 7.394l-.023-.012c-10.597-5.45-19.712-6.337-28.618-4.72-8.966 1.627-17.748 5.792-27.704 10.559l-34.411 16.475-44.028 21.08-3.216 1.54-4.783 2.29-79.058 37.851L75.664 218.655l-7.346 3.517-7.346 3.517c-32.11 15.374-54.03 47.98-58.606 83.43-2.154 16.683-.261 36.893 13.227 48.124 2.78 2.315 6.33 4.183 10.09 5.894 1.592.724 3.254 1.433 4.903 2.136l.003.001.002.001v.001c2.159.92 4.293 1.831 6.214 2.751l35.467 16.995 8.666 4.153C72.22 381.638 66.968 368.573 67 351.5l.069-.033c.331-17.166 4.864-35.357 12.504-50.833 7.695-15.586 18.599-28.528 31.662-34.824l33.909-16.342 3.059-1.474 4.411-2.126 4.663-2.247 46.042-22.189 107.595-51.853 160.679-77.436c14.599-7.035 29.226-14.008 43.852-20.98l.039-.019.009-.004.333-.159c3.963-1.889 7.927-3.778 11.889-5.669l20.228-9.649.394-.188.716-.342 24.82-11.84c-.006.005-.011.01-.017.013 4.229-3.255 8.643-6.017 13.185-8.17 9.492-4.498 18.385-5.794 26.106-4.315L561.09 7.394zm57.082 24.841a2.433 2.433 0 00-.85-.631L561.524 6.492c-21.585-11.101-37.353-3.682-57.211 5.826l-17.221 8.245-17.19 8.23-42.387 20.294-88.698 42.467L75.232 217.753l-7.134 3.416-.105.05-.107.051-.738.354-6.608 3.163C28.097 240.32 5.99 273.235 1.374 308.991c-2.162 16.754-.328 37.441 13.58 49.021 4.145 3.452 9.864 5.89 15.287 8.201v.001h.001c2.127.907 4.209 1.794 6.131 2.715l33.815 16.203 2.147 1.029 13.615 6.524c9.206 5.118 21.127 5.222 34.305-.909a51.114 51.114 0 001.927-.942l458.873-220.503c.748-.284 1.478-.691 2.215-1.102.544-.303 1.091-.608 1.652-.868 30.313-14.106 55.498-55.272 56.067-92.28.351-22.813-8.711-38.52-22.817-43.846zM68.079 350.982l463.333-222.37.002-.001.008-.003h-.01l.007-.005.003-.002.081-.05.124-.078c27.963-17.542 41.398-53.449 41.876-84.519l-.012.63-24.456 11.666-.82.391-2.32 1.107-17.749 8.467-11.955 5.7-.047.022-.213.102-.005.003c-14.643 6.98-29.285 13.96-43.898 21.002-50.141 24.163-100.281 48.327-150.42 72.491l-3.021 1.456-7.399 3.566-107.435 51.776-44.734 21.558-1.308.631-1.683.811-44.359 21.378c-25.353 12.219-42.768 50.232-43.59 84.271zm463.775-221.473l-.064-.295.15.243c28.466-17.715 42.051-54.054 42.561-85.385 4.169-3.206 8.51-5.92 12.968-8.031 14.912-7.068 28.125-6.027 37.524 1.1 9.433 7.15 15.278 20.62 14.996 38.925-.281 18.295-6.653 37.666-16.734 54.223-10.084 16.561-23.823 30.216-38.753 37.165-.598.277-1.183.603-1.726.905l-.28.156c-.638.354-1.22.662-1.797.882l-.039.015-458.925 220.527-.013.007c-.619.321-1.251.626-1.89.923-14.697 6.839-27.614 5.72-36.834-1.309-9.147-6.973-14.895-19.941-14.997-37.431l463.853-222.62z" fill="#C4C4C4"/><path fill-rule="evenodd" clip-rule="evenodd" d="M344.01 370.789c.487 36.001 24.585 53.564 54.364 39.197a51.569 51.569 0 001.92-.972l457.024-227.536c1.296-.515 2.533-1.398 3.849-2.029C891.365 164.878 916 123.329 916 86.318s-24.566-54.944-54.764-40.11C856.588 48.49 850.297 51.06 846 54.5c0 31.153-11.203 68.1-39.138 86.023h.01L344 370.313" fill="#1E3347"/><path fill-rule="evenodd" clip-rule="evenodd" d="M774.908 23.938c19.709-9.812 35.361-17.473 57.115-6.705L888.2 41.48c.17.074.327.163.47.267-8.071-1.769-17.444-.447-27.434 4.46-.982.482-2.037.977-3.131 1.49-4.041 1.897-8.616 4.043-11.995 6.715a.541.541 0 00-.184.051l-26.334 13.064a929613.748 929613.748 0 00-32.147 15.944c-14.536 7.205-29.071 14.41-43.577 21.678l-158.156 79.241-108.097 54.16L432.01 261.4l-45.786 22.94c-25.388 12.721-42.292 51.575-42.292 85.85 0 .536.033 1.036.095 1.502.461 18.658 7.334 32.246 18.057 38.836l-13.351-6.146-36.223-16.677c-1.937-.892-4.032-1.747-6.174-2.621-5.457-2.228-11.213-4.577-15.412-7.966-14.083-11.364-16.236-32.02-14.331-48.806 4.065-35.822 25.663-69.073 57.864-85.103 2.444-1.218 4.889-2.434 7.333-3.651l7.248-3.609 261.613-130.238L697.4 62.524l43.354-21.583a226651.13 226651.13 0 0034.154-17.003z" fill="#1768B5"/></svg>